<?xml version="1.0" standalone="no"?>
<!DOCTYPE svg PUBLIC "-//W3C//DTD SVG 20010904//EN"
 "http://www.w3.org/TR/2001/REC-SVG-20010904/DTD/svg10.dtd">
<svg version="1.0" xmlns="http://www.w3.org/2000/svg"
 width="512.000000pt" height="512.000000pt" viewBox="0 0 512.000000 512.000000"
 preserveAspectRatio="xMidYMid meet">

<g transform="translate(0.000000,512.000000) scale(0.100000,-0.100000)"
fill="#000000" stroke="none">
<path d="M710 4284 c-45 -20 -87 -59 -111 -106 -17 -33 -19 -60 -19 -241 0
-241 -2 -237 98 -237 l62 0 0 -1210 c0 -1168 1 -1212 19 -1248 22 -42 43 -63
88 -86 29 -14 135 -16 1094 -16 l1062 0 82 -78 c167 -161 367 -242 595 -242
476 0 860 384 860 861 0 166 -50 334 -139 470 -60 91 -195 221 -279 269 l-62
35 0 623 0 622 63 0 c98 0 97 -3 97 236 0 173 -3 204 -19 239 -24 53 -55 83
-105 106 -39 18 -102 19 -1696 18 -1457 0 -1659 -2 -1690 -15z m3339 -118 c43
-23 51 -54 51 -206 l0 -140 -1700 0 -1700 0 0 143 c1 152 7 179 51 203 37 21
3258 20 3298 0z m-109 -1061 c0 -327 -3 -595 -7 -595 -5 0 -43 7 -86 15 -279
53 -555 -28 -759 -223 -176 -168 -268 -382 -268 -622 0 -135 27 -249 97 -407
4 -10 -200 -13 -1001 -13 l-1007 0 -24 25 -25 24 0 1196 0 1195 1540 0 1540 0
0 -595z m-80 -710 c202 -48 384 -197 479 -389 54 -110 74 -198 74 -326 0 -128
-20 -216 -74 -326 -223 -452 -823 -551 -1179 -194 -119 118 -189 265 -211 441
-22 171 27 359 131 507 172 244 480 358 780 287z"/>
<path d="M1903 3479 c-85 -42 -127 -118 -121 -215 5 -74 37 -130 100 -171 l42
-28 476 0 476 0 42 28 c23 15 54 46 69 69 24 36 28 51 28 118 0 67 -4 82 -28
118 -15 23 -46 54 -69 69 l-42 28 -465 3 c-457 2 -467 2 -508 -19z m964 -131
c38 -39 38 -97 0 -136 l-27 -27 -440 0 -440 0 -27 28 c-49 48 -32 131 32 158
11 4 212 7 447 6 l428 -2 27 -27z"/>
<path d="M1280 1760 l0 -60 280 0 280 0 0 60 0 60 -280 0 -280 0 0 -60z"/>
<path d="M3395 1960 l-39 -40 119 -120 120 -120 -120 -120 -120 -120 43 -42
42 -43 120 120 120 120 120 -120 120 -120 42 43 43 42 -120 120 -120 120 120
120 120 120 -43 42 -42 43 -120 -120 -120 -120 -118 118 c-64 64 -120 117
-123 117 -3 0 -23 -18 -44 -40z"/>
</g>
</svg>
